<?xml version="1.0" encoding="UTF-8"?>
<svg version="1.1" xmlns="http://www.w3.org/2000/svg" width="250" height="250">
<path d="M0 0 C7.31412618 -0.00480604 14.62807278 -0.02265158 21.94214481 -0.0510757 C27.73882878 -0.07278736 33.53546193 -0.08278262 39.33218604 -0.08411622 C42.73905895 -0.08514737 46.14575514 -0.09069664 49.5525831 -0.10893583 C87.3758934 -0.28201432 87.3758934 -0.28201432 96.28224123 7.6216321 C100.90770461 12.6742491 102.86591978 17.11069176 102.96803224 24.00981569 C102.98796739 25.22348314 103.00790254 26.43715059 103.02844179 27.68759584 C103.04556196 29.0458134 103.06244436 30.40403397 103.07911623 31.7622571 C103.09995551 33.20841236 103.12104543 34.65456402 103.14236391 36.1007123 C103.19925856 40.09535292 103.24846876 44.09005443 103.2953409 48.08482409 C103.32521986 50.61465625 103.35667169 53.1444651 103.38838136 55.67427492 C103.77950083 87.37672905 103.87152335 119.07961769 103.88564622 150.78423738 C103.88770093 154.41035608 103.89145934 158.03646977 103.89555299 161.66258669 C103.90147017 167.44777377 103.9015164 173.23293403 103.89709222 179.0181222 C103.89606603 181.1516784 103.89658712 183.28523605 103.8988508 185.41879129 C103.91023418 198.39355512 103.59044499 211.28939786 102.76270998 224.2388196 C102.10270998 224.2388196 101.44270998 224.2388196 100.76270998 224.2388196 C100.53583498 224.7956946 100.30895998 225.3525696 100.07520998 225.9263196 C96.72921479 231.82164445 91.15759522 236.16952019 84.76270998 238.2388196 C81.98972499 238.4291821 79.31831585 238.517453 76.54656923 238.50624514 C75.72306405 238.51077625 74.89955888 238.51530736 74.051099 238.51997578 C71.29369797 238.53262854 68.53649423 238.53099884 65.7790674 238.52934694 C63.80118497 238.53533166 61.82330488 238.54213708 59.84542787 238.54970217 C54.47344481 238.56737554 49.10152547 238.57205813 43.72951615 238.57333374 C39.243995 238.57523313 34.75848868 238.58259118 30.27297324 238.58967793 C19.68905948 238.60596472 9.10517975 238.61084663 -1.4787451 238.60942507 C-12.39360826 238.60822367 -23.30827366 238.62932446 -34.22308677 238.66091239 C-43.59649291 238.68707195 -52.96983444 238.69779249 -62.3432768 238.69651425 C-67.94048839 238.6960045 -73.53752426 238.70169467 -79.13469946 238.72287035 C-84.40017802 238.74224709 -89.66531316 238.7423809 -94.93080389 238.72783709 C-96.86090912 238.72574717 -98.79103581 238.73046074 -100.72110426 238.742558 C-103.36120428 238.75803087 -106.00012315 238.74868919 -108.64019835 238.73329592 C-109.39945658 238.74358304 -110.1587148 238.75387017 -110.94098085 238.76446903 C-117.56503286 238.67943608 -122.52524453 236.37401732 -127.69822752 232.3013196 C-133.14538779 226.4317265 -135.10254519 221.24266279 -135.23729002 213.2388196 C-135.08669769 211.48074371 -134.92227131 209.72383419 -134.74925292 207.96782351 C-134.12312481 200.67457219 -134.09206159 193.40945467 -134.10447752 186.09428835 C-134.10380177 184.67089239 -134.10282949 183.24749654 -134.10157835 181.82410097 C-134.10011654 178.8650798 -134.10220818 175.90608913 -134.10691893 172.94707155 C-134.11264162 169.17030198 -134.10931159 165.39360311 -134.10334647 161.61683607 C-134.09972196 158.68706151 -134.10088767 155.75730355 -134.10347426 152.82752848 C-134.10413694 151.43497951 -134.10333837 150.04242899 -134.10099471 148.64988184 C-134.09843404 146.70320973 -134.10303354 144.75653225 -134.10789549 142.80986452 C-134.10869109 141.70688524 -134.10948668 140.60390596 -134.11030638 139.46750307 C-134.17866794 136.2152836 -134.17866794 136.2152836 -134.7362982 132.93764162 C-135.34722494 128.42717024 -135.38487371 124.0321404 -135.3825537 119.48662233 C-135.38591231 118.53273119 -135.38927092 117.57884005 -135.39273131 116.59604311 C-135.40219834 113.45481978 -135.4041826 110.31365004 -135.40525877 107.17241335 C-135.4084754 104.97393189 -135.41183977 102.77545064 -135.41534483 100.57696962 C-135.42132628 95.96970038 -135.42318585 91.36244987 -135.42259276 86.75517702 C-135.42249145 80.88377338 -135.43611623 75.0124915 -135.45336497 69.14111662 C-135.46454842 64.59831628 -135.46650999 60.05554472 -135.46598303 55.51273203 C-135.46715466 53.35004239 -135.47152992 51.18735179 -135.4793154 49.02467585 C-135.58591113 16.34308594 -135.58591113 16.34308594 -129.01463377 8.8560071 C-123.07078603 3.44775882 -117.55204069 1.1867165 -109.51733458 1.03746462 C-108.59344246 1.01832254 -107.66955035 0.99918047 -106.7176615 0.97945833 C-105.21059417 0.95557165 -105.21059417 0.95557165 -103.67308104 0.93120241 C-102.60134831 0.91104822 -101.52961558 0.89089403 -100.4254061 0.87012911 C-96.8432425 0.8051167 -93.26101149 0.74794656 -89.67869627 0.6919446 C-88.43038086 0.67125162 -87.18206545 0.65055864 -85.8959223 0.62923861 C-57.26522835 0.15961383 -28.63419097 0.01844896 0 0 Z " fill="#262626" transform="translate(140.23729002475739,2.7611804008483887)"/>
<path d="M0 0 C4.98774904 3.40073798 7.77217105 7.08506747 9 13 C9.92376436 20.3199556 9.08467934 25.68285869 4.88671875 31.828125 C0.95425411 36.3549373 -3.04544996 38.53287746 -8.96484375 39.46875 C-15.94347692 39.82076176 -20.74217987 38.6478642 -26 34 C-30.87923786 29.34538178 -32.77349459 24.8086671 -33.3125 18.125 C-33.11404529 12.64138298 -31.93928511 8.13657168 -28.1953125 4.01171875 C-19.71476443 -3.71678072 -10.32814219 -5.67035258 0 0 Z " fill="#D3D3D3" transform="translate(136,105)"/>
<path d="M0 0 C5.90760956 -0.00035554 11.81516176 -0.01211577 17.72275299 -0.02593523 C23.5397566 -0.03904026 29.35673437 -0.04437511 35.17375261 -0.04373616 C38.59610297 -0.04348459 42.01838091 -0.04615132 45.44071591 -0.05691421 C49.20880202 -0.06674424 52.97667858 -0.06383037 56.74476826 -0.05780876 C57.83702214 -0.06342826 58.92927601 -0.06904777 60.05462849 -0.07483757 C67.28652771 -0.04556815 74.13322936 0.79300464 81.22792256 2.18511117 C81.22792256 2.51511117 81.22792256 2.84511117 81.22792256 3.18511117 C80.18724566 3.18749952 79.14656876 3.18988787 78.0743562 3.1923486 C52.76118924 3.25112349 27.44811761 3.32699388 2.13505566 3.42082608 C-10.10611537 3.46580604 -22.34725717 3.50521567 -34.58848369 3.53154671 C-45.25699651 3.55450892 -55.92541697 3.58788712 -66.59385657 3.63381273 C-72.24355995 3.65776883 -77.89317173 3.67648199 -83.54292476 3.68272507 C-88.86003634 3.68876507 -94.17691347 3.70872583 -99.49393833 3.73938668 C-101.44582099 3.74818428 -103.39773427 3.75188593 -105.34963596 3.75011933 C-108.01465735 3.7484688 -110.67896216 3.76514703 -113.3438853 3.78638375 C-114.11627076 3.78153617 -114.88865621 3.7766886 -115.68444729 3.77169412 C-121.29224283 3.84544207 -125.43685609 5.03451201 -129.60020244 8.86870492 C-130.06942119 9.44749398 -130.53863994 10.02628304 -131.02207744 10.62261117 C-131.74137432 11.48692757 -131.74137432 11.48692757 -132.47520244 12.36870492 C-135.75242358 16.95878874 -136.06182668 20.74918382 -136.03950298 26.31896126 C-136.04403409 27.14569556 -136.0485652 27.97242987 -136.05323362 28.82421672 C-136.06590862 31.59854281 -136.06425525 34.37267336 -136.06260478 37.14702523 C-136.06858818 39.13461223 -136.07539328 41.12219691 -136.08296001 43.10977852 C-136.10064838 48.51281146 -136.10531664 53.91578106 -136.10659158 59.31884015 C-136.10848987 63.82916437 -136.11584676 68.33947382 -136.12293577 72.84979236 C-136.13922879 83.49266014 -136.14410396 94.13549407 -136.14268291 104.77837288 C-136.14148183 115.75513081 -136.16257494 126.73169199 -136.19417024 137.70840013 C-136.22033006 147.13274104 -136.2310503 156.55701771 -136.22977209 165.98139465 C-136.22926229 171.60991987 -136.23495535 177.23827037 -136.25612819 182.86675942 C-136.27550501 188.1625928 -136.27563867 193.45808473 -136.26109493 198.75393021 C-136.25900492 200.69532246 -136.26371913 202.63673605 -136.27581584 204.57809174 C-136.29128757 207.23356972 -136.28194767 209.88787321 -136.26655376 212.5433265 C-136.28198445 213.68907344 -136.28198445 213.68907344 -136.29772687 214.85796678 C-136.21299592 221.49626408 -133.98799226 226.56630274 -129.70957744 231.62261117 C-127.75536928 233.38478191 -127.75536928 233.38478191 -124.77207744 234.18511117 C-124.77207744 234.84511117 -124.77207744 235.50511117 -124.77207744 236.18511117 C-130.8252458 234.1356964 -134.32563107 230.49387498 -137.77207744 225.18511117 C-139.80483772 219.36693509 -139.88214802 213.98447245 -139.28404033 207.91411507 C-138.65791223 200.62086376 -138.62684901 193.35574623 -138.63926494 186.04057992 C-138.63858919 184.61718395 -138.63761691 183.19378811 -138.63636577 181.77039254 C-138.63490396 178.81137137 -138.6369956 175.8523807 -138.64170635 172.89336312 C-138.64742904 169.11659355 -138.644099 165.33989468 -138.63813388 161.56312764 C-138.63450937 158.63335308 -138.63567509 155.70359512 -138.63826168 152.77382004 C-138.63892436 151.38127108 -138.63812578 149.98872056 -138.63578212 148.59617341 C-138.63322146 146.64950129 -138.63782096 144.70282381 -138.64268291 142.75615609 C-138.6434785 141.65317681 -138.6442741 140.55019753 -138.6450938 139.41379464 C-138.71345536 136.16157517 -138.71345536 136.16157517 -139.27108562 132.88393319 C-139.88201236 128.37346181 -139.91966112 123.97843197 -139.91734111 119.4329139 C-139.92069973 118.47902276 -139.92405834 117.52513161 -139.92751873 116.54233468 C-139.93698575 113.40111135 -139.93897001 110.25994161 -139.94004619 107.11870492 C-139.94326281 104.92022346 -139.94662719 102.72174221 -139.95013225 100.52326119 C-139.9561137 95.91599195 -139.95797327 91.30874143 -139.95738018 86.70146859 C-139.95727886 80.83006494 -139.97090364 74.95878306 -139.98815238 69.08740819 C-139.99933583 64.54460784 -140.00129741 60.00183629 -140.00077045 55.45902359 C-140.00194208 53.29633395 -140.00631734 51.13364336 -140.01410282 48.97096741 C-140.12069855 16.28937751 -140.12069855 16.28937751 -133.54942119 8.80229867 C-127.60690677 3.39526356 -122.0888726 1.13402565 -114.05608928 0.98276436 C-112.67144827 0.95375196 -112.67144827 0.95375196 -111.25883472 0.92415345 C-109.75295701 0.89996936 -109.75295701 0.89996936 -108.21665752 0.87529671 C-107.14559701 0.85497447 -106.07453651 0.83465222 -104.97101963 0.81371415 C-101.39045699 0.74822461 -97.80982643 0.69066808 -94.22910869 0.63432992 C-92.9812792 0.61351546 -91.7334497 0.592701 -90.44780719 0.5712558 C-60.29962027 0.07460087 -30.15167328 -0.0026717 0 0 Z " fill="#CCCCCB" transform="translate(144.77207744121552,2.814888834953308)"/>
<path d="M0 0 C4.97230161 0.2425513 7.59731673 1.88228358 11.2890625 4.94140625 C17.55113173 12.47590508 17.60050055 19.56323871 17.609375 29.01171875 C17.62459366 30.45074182 17.64144095 31.88974841 17.65975952 33.32873535 C17.70464659 37.28227188 17.72411258 41.23557721 17.73862457 45.18932724 C17.75392559 48.54960298 17.78345664 51.90969459 17.81288338 55.26987171 C17.91255015 66.75548005 17.95696865 78.24108412 17.99031067 89.72705078 C18.00034404 93.11621396 18.01149539 96.50537218 18.02282715 99.89453125 C18.07481103 115.77740078 18.10722617 131.66023832 18.12159729 147.54318619 C18.12386189 149.96857867 18.12645475 152.39397087 18.12937927 154.81936264 C18.13768741 161.80612673 18.14037958 168.79285008 18.13457108 175.77961731 C18.1334214 177.91303991 18.13386075 180.04646412 18.13608932 182.17988586 C18.14749711 195.15468343 17.82773723 208.05054374 17 221 C16.34 221 15.68 221 15 221 C14.71125 221.598125 14.4225 222.19625 14.125 222.8125 C13 225 13 225 11 228 C10.34 228 9.68 228 9 228 C9.268125 227.484375 9.53625 226.96875 9.8125 226.4375 C10.204375 225.633125 10.59625 224.82875 11 224 C11.51149629 222.96757895 12.02299257 221.93515791 12.54998875 220.87145138 C14.26114399 216.83298312 14.42234917 212.95918868 14.38768005 208.61927795 C14.39306559 207.80223103 14.39845113 206.98518412 14.40399987 206.1433782 C14.41824828 203.41973007 14.4111835 200.69657009 14.40405273 197.97290039 C14.40975792 196.01442577 14.41672276 194.05595447 14.42485046 192.0974884 C14.44278024 186.78756973 14.44161383 181.47781633 14.43590808 176.16787648 C14.43281606 171.7319563 14.43890882 167.29606785 14.44494683 162.86015218 C14.45898978 152.3941273 14.45743257 141.92818404 14.44604492 131.4621582 C14.43456293 120.67107428 14.44864136 109.88023886 14.4754414 99.08918768 C14.49760409 89.81764288 14.50423451 80.54617605 14.49836498 71.27460665 C14.49499571 65.74003329 14.49740872 60.20561923 14.51461601 54.67106819 C14.5300921 49.46628347 14.52612203 44.2618667 14.50731087 39.05709648 C14.5036269 37.14957118 14.50672784 35.24201857 14.51719666 33.33451843 C14.53042152 30.72515848 14.51884633 28.11701401 14.50120544 25.50770569 C14.51081045 24.7575936 14.52041546 24.00748151 14.53031152 23.23463875 C14.44311671 16.94184866 12.4592705 11.69197566 8.18359375 7.01171875 C7.60738281 6.57472656 7.03117188 6.13773438 6.4375 5.6875 C4.1360107 3.89859184 2.02639592 2.10030702 0 0 Z " fill="#A4A4A4" transform="translate(226,6)"/>
<path d="M0 0 C3.86550221 2.57700147 5.63728856 4.54021709 7 9 C5.2984375 8.505 5.2984375 8.505 3.5625 8 C-3.96208804 6.15534791 -11.1097015 6.1332924 -18 10 C-23.22245748 13.89911984 -26.23333585 18.72321663 -27.3984375 25.22265625 C-27.64900784 27.1425668 -27.83080823 29.07121381 -28 31 C-31.13220429 28.4372874 -32.04560617 25.89099023 -33 22 C-33.47231404 16.14330595 -33.08580637 11.11916884 -30 6 C-21.62013303 -3.23236426 -11.25624641 -6.17989999 0 0 Z " fill="#747577" transform="translate(136,105)"/>
<path d="M0 0 C14.26533771 -0.04687923 28.53066334 -0.08193315 42.79606247 -0.10362434 C49.42087231 -0.1140378 56.0456302 -0.12815239 62.67041016 -0.15087891 C69.07003537 -0.17269431 75.46961078 -0.18458695 81.86927032 -0.18975449 C84.30435215 -0.19343466 86.73943141 -0.20062093 89.17449188 -0.21146011 C92.5991341 -0.22609061 96.02357348 -0.22797312 99.44824219 -0.22705078 C100.44303085 -0.23424133 101.43781952 -0.24143188 102.4627533 -0.24884033 C109.47262217 -0.22856353 116.12193076 0.6685859 123 2 C123 2.33 123 2.66 123 3 C109.17762401 3.04651601 95.35526691 3.08196661 81.53282833 3.10362434 C75.11324723 3.11402343 68.69372002 3.12811127 62.27416992 3.15087891 C56.06904642 3.17274619 49.86397447 3.18459771 43.65881538 3.18975449 C41.30157218 3.19342546 38.94433153 3.20059332 36.58711052 3.21146011 C24.22637721 3.26613255 12.19609648 3.18909666 0 1 C0 0.67 0 0.34 0 0 Z " fill="#CDCCCC" transform="translate(103,3)"/>
<path d="M0 0 C0.495 2.97 0.495 2.97 1 6 C-0.03125 5.360625 -1.0625 4.72125 -2.125 4.0625 C-6.2008809 1.78815846 -9.40040532 0.31790451 -14.12890625 1.55859375 C-22.61937016 4.79100387 -27.33053371 11.52885393 -32 19 C-31.67 19 -31.34 19 -31 19 C-31 20.98 -31 22.96 -31 25 C-31.99 25 -32.98 25 -34 25 C-36.35020498 22.64979502 -36.31914802 22.08090378 -36.375 18.875 C-36.18585535 11.9322788 -33.3084714 7.16227513 -28.6875 2.125 C-20.43598548 -5.56590207 -9.63991039 -3.82861689 0 0 Z " fill="#A3A4A5" transform="translate(144,114)"/>
<path d="M0 0 C0.71632599 -0.00673233 1.43265198 -0.01346466 2.17068481 -0.020401 C9.6031355 -0.03054054 16.90457 0.95691181 24.23828125 2.08984375 C24.23828125 2.41984375 24.23828125 2.74984375 24.23828125 3.08984375 C22.4730159 3.09864311 22.4730159 3.09864311 20.67208862 3.10762024 C9.57785005 3.16484965 -1.51619255 3.23761263 -12.6102314 3.32555866 C-18.31370759 3.3702734 -24.01711215 3.40952728 -29.72070312 3.4362793 C-35.22567227 3.46230098 -40.73036599 3.50269581 -46.23516464 3.55303001 C-48.33465014 3.56970632 -50.43418329 3.58121583 -52.53372574 3.58745766 C-55.47606484 3.59709024 -58.41769808 3.6251401 -61.35986328 3.6574707 C-62.22661179 3.65603561 -63.09336029 3.65460052 -63.9863739 3.65312195 C-69.77859324 3.7430481 -74.06069362 4.71247087 -78.5546875 8.66796875 C-81.85309498 12.62236204 -83.98345315 16.24900961 -85.76171875 21.08984375 C-86.09171875 21.08984375 -86.42171875 21.08984375 -86.76171875 21.08984375 C-87.39878686 16.84272303 -86.66434646 14.44946484 -84.26171875 11.02734375 C-79.78508887 5.50299198 -74.7668147 2.26541167 -67.76171875 1.08984375 C-65.93088788 0.98001 -64.09705753 0.91471277 -62.26318359 0.88452148 C-60.643965 0.85460365 -60.643965 0.85460365 -58.99203491 0.82408142 C-57.83063995 0.80736893 -56.669245 0.79065643 -55.47265625 0.7734375 C-54.25961823 0.7526564 -53.0465802 0.73187531 -51.79678345 0.71046448 C-49.22295574 0.66722602 -46.64909039 0.62618094 -44.07519531 0.5871582 C-40.19977714 0.52830143 -36.32451163 0.46303531 -32.44921875 0.39648438 C-21.63365455 0.21579611 -10.81705625 0.05157241 0 0 Z " fill="#DBDADA" transform="translate(93.76171875,2.91015625)"/>
<path d="M0 0 C0 0.66 0 1.32 0 2 C1.98 2.33 3.96 2.66 6 3 C6 3.99 6 4.98 6 6 C5.030625 5.67 4.06125 5.34 3.0625 5 C-4.19691075 2.96560868 -11.35271647 3.26966789 -18 7 C-23.22245748 10.89911984 -26.23333585 15.72321663 -27.3984375 22.22265625 C-27.64900784 24.1425668 -27.83080823 26.07121381 -28 28 C-30.31602487 26.2128312 -30.95262909 25.34669257 -31.35546875 22.3984375 C-30.94989897 15.0981814 -29.4427528 10.97070614 -24.15234375 5.84765625 C-16.36549316 -0.83688155 -9.84671505 -0.45621846 0 0 Z " fill="#8F9192" transform="translate(136,108)"/>
<path d="M0 0 C0.33 0 0.66 0 1 0 C2.02816566 22.04844127 -3.03859663 41.31795316 -13.5 60.6875 C-13.85537842 61.35942383 -14.21075684 62.03134766 -14.5769043 62.72363281 C-17.09383471 67.18476529 -19.54016825 69.46891732 -24 72 C-22.55434018 68.88191019 -20.79193651 66.25937366 -18.75 63.5 C-5.70898222 44.91249125 -1.42579545 22.32107358 0 0 Z " fill="#343333" transform="translate(232,116)"/>
<path d="M0 0 C1.8871875 0.0309375 1.8871875 0.0309375 3.8125 0.0625 C3.4825 0.7225 3.1525 1.3825 2.8125 2.0625 C1.966875 2.289375 1.12125 2.51625 0.25 2.75 C-6.59665152 5.36417603 -11.65430335 10.73218933 -15.1875 17.0625 C-15.1875 17.7225 -15.1875 18.3825 -15.1875 19.0625 C-15.1875 21.0625 -15.1875 23.0625 -15.1875 25.0625 C-16.1775 25.0625 -17.1675 25.0625 -18.1875 25.0625 C-18.1875 21.4325 -18.1875 17.8025 -18.1875 14.0625 C-17.5275 14.0625 -16.8675 14.0625 -16.1875 14.0625 C-16.001875 13.216875 -15.81625 12.37125 -15.625 11.5 C-13.75107033 7.01886382 -10.94578929 4.10093878 -7.1875 1.0625 C-4.43671116 0.14557039 -2.82801087 -0.04636083 0 0 Z " fill="#B2B3B4" transform="translate(128.1875,113.9375)"/>
<path d="M0 0 C4.97230161 0.2425513 7.59731673 1.88228358 11.2890625 4.94140625 C16.52215941 11.23784934 17.57075123 16.96888258 17.25 25 C17.23195312 25.87011719 17.21390625 26.74023438 17.1953125 27.63671875 C17.14868436 29.75829907 17.07696077 31.87930335 17 34 C16.34 34 15.68 34 15 34 C14.97421875 32.865625 14.9484375 31.73125 14.921875 30.5625 C14.75121785 17.8151367 14.75121785 17.8151367 8.28515625 7.3046875 C7.1125761 6.27836999 5.91392949 5.28053762 4.68359375 4.32421875 C2.98618824 2.98913646 1.49809672 1.55273854 0 0 Z " fill="#E7E7E7" transform="translate(226,6)"/>
<path d="M0 0 C0 0.33 0 0.66 0 1 C-1.32064453 1.07347656 -1.32064453 1.07347656 -2.66796875 1.1484375 C-4.41013672 1.26058594 -4.41013672 1.26058594 -6.1875 1.375 C-7.91033203 1.47941406 -7.91033203 1.47941406 -9.66796875 1.5859375 C-14.2813592 2.15923104 -16.92355245 2.86924519 -20.16796875 6.27734375 C-21.16763672 7.59412109 -21.16763672 7.59412109 -22.1875 8.9375 C-22.86167969 9.81277344 -23.53585938 10.68804687 -24.23046875 11.58984375 C-26.98398626 15.34021969 -28.26466116 17.56315161 -28.625 22.1875 C-28.69976562 23.08855469 -28.77453125 23.98960937 -28.8515625 24.91796875 C-28.90054688 25.60503906 -28.94953125 26.29210937 -29 27 C-31 25 -31 25 -31.2578125 22.49609375 C-30.9379355 15.12951456 -29.48645721 11.01302798 -24.15234375 5.84765625 C-16.36549316 -0.83688155 -9.84671505 -0.45621846 0 0 Z " fill="#858688" transform="translate(136,108)"/>
<path d="M0 0 C3.33091312 3.33091312 2.36075527 8.46336202 2.390625 12.99609375 C2.59822348 19.95064291 4.55461515 25.10999972 9.0625 30.4375 C11.01670816 32.19967075 11.01670816 32.19967075 14 33 C14 33.66 14 34.32 14 35 C7.94683164 32.95058523 4.44644637 29.30876381 1 24 C-1.74246851 16.15049369 -1.06480736 8.11555877 0 0 Z " fill="#E0DEDE" transform="translate(6,204)"/>
<path d="M0 0 C0.33 0 0.66 0 1 0 C0.56032265 6.48524098 -1.12436957 11.02798471 -4.25 16.6875 C-4.63285156 17.42033203 -5.01570312 18.15316406 -5.41015625 18.90820312 C-8.39648394 24.44639276 -11.70062495 28.4670833 -17 32 C-15.55434018 28.88191019 -13.79193651 26.25937366 -11.75 23.5 C-6.60088117 16.23318512 -2.67690392 8.49571386 0 0 Z " fill="#3A3939" transform="translate(225,156)"/>
<path d="M0 0 C-1.19625 0.515625 -2.3925 1.03125 -3.625 1.5625 C-10.75624078 5.14705289 -14.30828787 10.67256142 -17 18 C-17.33 18 -17.66 18 -18 18 C-18.63706811 13.75287928 -17.90262771 11.35962109 -15.5 7.9375 C-11.59892521 3.13048841 -6.50984371 -2.30014478 0 0 Z " fill="#EFEFEF" transform="translate(25,6)"/>
<path d="M0 0 C5.21983494 0.25462609 7.80651897 2.11257075 11.58203125 5.4296875 C13 7 13 7 14 10 C10.71090998 9.40724092 8.91094429 8.34943983 6.4375 6.125 C5.85871094 5.61195312 5.27992188 5.09890625 4.68359375 4.5703125 C3.085826 3.08005116 1.533143 1.55644304 0 0 Z " fill="#E1E0E0" transform="translate(226,6)"/>
<path d="M0 0 C0.66 0.33 1.32 0.66 2 1 C1.52949219 1.42410156 1.05898437 1.84820312 0.57421875 2.28515625 C-5.96203529 8.44249701 -8.22406631 14.15435599 -9 23 C-9.33 23 -9.66 23 -10 23 C-10.58280812 17.12874778 -10.91933643 12.43958284 -7.25 7.5625 C-6.19735298 6.34771541 -5.1160124 5.15684212 -4 4 C-3.21625 3.175 -2.4325 2.35 -1.625 1.5 C-0.820625 0.7575 -0.820625 0.7575 0 0 Z " fill="#959798" transform="translate(117,113)"/>
<path d="M0 0 C0.66 0.33 1.32 0.66 2 1 C1.01 1 0.02 1 -1 1 C-0.67 0.67 -0.34 0.34 0 0 Z M-3 2 C-2.34 2.33 -1.68 2.66 -1 3 C-8.29840547 11.44646925 -8.29840547 11.44646925 -12 15 C-11.41273335 11.37036582 -9.95905107 9.49830783 -7.5 6.8125 C-6.8709375 6.11769531 -6.241875 5.42289062 -5.59375 4.70703125 C-4.74091381 3.79357681 -3.88366526 2.88366526 -3 2 Z " fill="#BBBBBC" transform="translate(124,116)"/>
<path d="M0 0 C0.66 0.33 1.32 0.66 2 1 C2 1.66 2 2.32 2 3 C1.34 3 0.68 3 0 3 C-0.28875 3.598125 -0.5775 4.19625 -0.875 4.8125 C-2 7 -2 7 -4 10 C-4.66 10 -5.32 10 -6 10 C-5.71125 9.443125 -5.4225 8.88625 -5.125 8.3125 C-3.94039559 5.97193593 -3.94039559 5.97193593 -3 3.3125 C-2 1 -2 1 0 0 Z " fill="#989897" transform="translate(241,224)"/>
<path d="M0 0 C0.99 0 1.98 0 3 0 C3.66 2.31 4.32 4.62 5 7 C4.01 7 3.02 7 2 7 C1.34 4.69 0.68 2.38 0 0 Z " fill="#EFEEEE" transform="translate(238,16)"/>
</svg>
